<svg width="40" height="40" viewBox="0 0 40 40" fill="none" xmlns="http://www.w3.org/2000/svg">
    <path
        d="M32.0845 7.94025V4H24.0203V7.9896H16.029V4H7.91553V7.94025H4V36H16.0044V32.0045C16.0058 30.9457 16.4274 29.9308 17.1766 29.1826C17.9258 28.4345 18.9412 28.0143 20 28.0143C21.0588 28.0143 22.0743 28.4345 22.8234 29.1826C23.5726 29.9308 23.9942 30.9457 23.9956 32.0045V36H36V7.94025H32.0845Z"
        fill="url(#paint0_linear)"/>
    <defs>
        <linearGradient id="paint0_linear" x1="2.94192" y1="4.89955" x2="37.7772" y2="39.7345"
                        gradientUnits="userSpaceOnUse">
            <stop offset="0.15937" stop-color="#80ff00"/>
            <stop offset="0.5404" stop-color="#ff6600"/>
            <stop offset="0.93739" stop-color="#0099ff"/>
        </linearGradient>
    </defs>

    <!-- Emoji path -->
    <path
        d="M16 20.5C16 23.5376 13.5376 26 10.5 26C7.46243 26 5 23.5376 5 20.5C5 17.4624 7.46243 15 10.5 15C13.5376 15 16 17.4624 16 20.5ZM10.5 17.5C8.29086 17.5 6.5 19.2909 6.5 21.5C6.5 23.7091 8.29086 25.5 10.5 25.5C12.7091 25.5 14.5 23.7091 14.5 21.5C14.5 19.2909 12.7091 17.5 10.5 17.5ZM33 7V8.5H32V7H30V6H32V4H33V6H35V7H33ZM30 9V10.5H29V9H27V8H29V6H30V8H32V9H30ZM33 10V11.5H32V10H30V9H32V7H33V9H35V10H33ZM30 12V13.5H29V12H27V11H29V9H30V11H32V12H30ZM33 13V14.5H32V13H30V12H32V10H33V12H35V13H33ZM30 15V16.5H29V15H27V14H29V12H30V14H32V15H30ZM33 16V17.5H32V16H30V15H32V13H33V15H35V16H33ZM30 18V19.5H29V18H27V17H29V15H30V17H32V18H30ZM33 19V20.5H32V19H30V18H32V16H33V18H35V19H33ZM30 21V22.5H29V21H27V20H29V18H30V20H32V21H30ZM33 22V23.5H32V22H30V21H32V19H33V21H35V22H33ZM30 24V25.5H29V24H27V23H29V21H30V23H32V24H30ZM33 25V26.5H32V25H30V24H32V22H33V24H35V25H33ZM30 27V28.5H29V27H27V26H29V24H30V26H32V27H30ZM33 28V29.5H32V28H30V27H32V25H33V27H35V28H33ZM30 30V31.5H29V30H27V29H29V27H30V29H32V30H30ZM33 31V32.5H32V31H30V30H32V28H33V30H35V31H33ZM30 33V34.5H29V33H27V32H29V30H30V32H32V33H30ZM33 34V35.5H32V34H30V33H32V31H33V33H35V34H33ZM30 36V37.5H29V36H27V35H29V33H30V35H32V36H30ZM33 37V38.5H32V37H30V36H32V34H33V36H35V37H33Z"
        fill="#000000"/>
</svg>


